<?xml version="1.0" encoding="UTF-8"?>
<svg version="1.1" xmlns="http://www.w3.org/2000/svg" width="518" height="120">
<path d="M0 0 C8.01644302 3.51598378 12.85731804 9.42512427 16.1875 17.4453125 C17.69620267 22.18902187 18.36651803 27.07384414 19 32 C19.598125 31.649375 20.19625 31.29875 20.8125 30.9375 C23 30 23 30 26 31 C23.0918968 34.9986419 19.76523995 37.98475945 16.0234375 41.15625 C13.52346471 43.43421748 11.46887638 45.93200334 9.421875 48.6171875 C7.69495018 50.29666933 6.34530252 50.60911625 4 51 C4.33 49.35 4.66 47.7 5 46 C3.515 45.96132812 3.515 45.96132812 2 45.921875 C-7.26326872 45.57001622 -13.6334703 44.45683601 -21 38.625 C-23.44007081 35.42240706 -23.50281787 33.93874002 -23 30 C-22.67516582 28.66457061 -22.3449145 27.33038449 -22 26 C-22.33 25.67 -22.66 25.34 -23 25 C-23.42426345 21.26648162 -23.26623229 19.44372048 -21.3125 16.1875 C-18.78498424 13.79660671 -17.41529114 13.2846076 -14 13 C-13.91363281 12.39671875 -13.82726562 11.7934375 -13.73828125 11.171875 C-13.03175501 7.15310187 -12.5048266 4.59136831 -9.8125 1.4375 C-6.16193729 -0.42834316 -4.06296964 -0.56040961 0 0 Z " fill="#2D3493" transform="translate(207,76)"/>
<path d="M0 0 C8.33640218 3.65631674 12.76197374 9.62865493 16.23828125 17.88671875 C17.64911999 21.80089188 18.11741175 25.07670723 18.0625 29.25 C18.05347656 30.14203125 18.04445312 31.0340625 18.03515625 31.953125 C18.02355469 32.62859375 18.01195312 33.3040625 18 34 C16.68 34.66 15.36 35.32 14 36 C13.67 33.69 13.34 31.38 13 29 C11.68 28.67 10.36 28.34 9 28 C9 27.34 9 26.68 9 26 C7.453125 25.814375 7.453125 25.814375 5.875 25.625 C-0.42891976 24.83985476 -6.71306933 23.90948576 -13 23 C-13.34179688 19.97265625 -13.34179688 19.97265625 -13.68359375 16.9453125 C-13.91292961 14.92595684 -13.91292961 14.92595684 -15 13 C-14.36328125 10.72265625 -14.36328125 10.72265625 -13.3125 8.0625 C-12.81169922 6.74958984 -12.81169922 6.74958984 -12.30078125 5.41015625 C-9.39739868 0.03061556 -5.86974507 -0.69641043 0 0 Z " fill="#E6237B" transform="translate(207,76)"/>
<path d="M0 0 C3.51423905 1.49137007 5.68476369 3.50557913 8.3125 6.25 C12.04647173 10.07670282 15.8869659 13.58705681 20 17 C20.33 11.39 20.66 5.78 21 0 C22.65 0 24.3 0 26 0 C27.18707512 3.56122537 27.14907965 6.79517343 27.125 10.5 C27.12306641 11.20962891 27.12113281 11.91925781 27.11914062 12.65039062 C27.07183097 18.46947842 26.68580211 24.21966794 26 30 C21.67975514 27.36570435 18.32641029 24.44796978 14.8125 20.81640625 C12.02628178 18.02418325 9.02417476 15.53043194 6 13 C5.67 18.61 5.34 24.22 5 30 C3.35 30 1.7 30 0 30 C-1.83034055 28.16965945 -1.13042797 25.26788008 -1.1328125 22.8125 C-1.13410156 21.55695313 -1.13539063 20.30140625 -1.13671875 19.0078125 C-1.13462402 18.35071289 -1.1325293 17.69361328 -1.13037109 17.01660156 C-1.12502234 15.00838665 -1.13031691 13.00039541 -1.13671875 10.9921875 C-1.13542969 9.73664063 -1.13414062 8.48109375 -1.1328125 7.1875 C-1.13112061 5.44533203 -1.13112061 5.44533203 -1.12939453 3.66796875 C-1 1 -1 1 0 0 Z " fill="#2A2D7A" transform="translate(142,126)"/>
<path d="M0 0 C0.33 0.99 0.66 1.98 1 3 C1.61875 3.28875 2.2375 3.5775 2.875 3.875 C5.70933445 5.37553 6.58610503 7.17221007 8 10 C8 10.66 8 11.32 8 12 C8.53625 12.103125 9.0725 12.20625 9.625 12.3125 C12.62502044 13.18092697 15.2379535 14.55620296 18 16 C17 19 17 19 15 20 C4.1831266 20.75495341 -3.29967426 20.51275788 -12 13.625 C-14 11 -14 11 -14.5 7.875 C-14 5 -14 5 -12.875 3.25 C-8.83215174 0.55476783 -4.8031502 -0.28253825 0 0 Z " fill="#025FAC" transform="translate(198,101)"/>
<path d="M0 0 C1.28132813 0.00902344 2.56265625 0.01804687 3.8828125 0.02734375 C4.87023438 0.03894531 5.85765625 0.05054687 6.875 0.0625 C7.535 2.3725 8.195 4.6825 8.875 7.0625 C4.915 7.0625 0.955 7.0625 -3.125 7.0625 C-3.125 8.7125 -3.125 10.3625 -3.125 12.0625 C-2.465 11.7325 -1.805 11.4025 -1.125 11.0625 C0.41523996 10.99299459 1.95834988 10.97797643 3.5 11 C4.72589844 11.01353516 4.72589844 11.01353516 5.9765625 11.02734375 C6.91628906 11.04474609 6.91628906 11.04474609 7.875 11.0625 C7.875 13.3725 7.875 15.6825 7.875 18.0625 C4.245 18.0625 0.615 18.0625 -3.125 18.0625 C-3.125 20.3725 -3.125 22.6825 -3.125 25.0625 C0.505 25.0625 4.135 25.0625 7.875 25.0625 C7.875 27.0425 7.875 29.0225 7.875 31.0625 C5.22909986 31.08934679 2.58346904 31.10926357 -0.0625 31.125 C-0.81724609 31.13337891 -1.57199219 31.14175781 -2.34960938 31.15039062 C-4.27494313 31.15902441 -6.20035581 31.11474333 -8.125 31.0625 C-9.125 30.0625 -9.125 30.0625 -9.23852539 27.28686523 C-9.23328857 26.07716064 -9.22805176 24.86745605 -9.22265625 23.62109375 C-9.21943359 22.31591797 -9.21621094 21.01074219 -9.21289062 19.66601562 C-9.20453401 18.2773431 -9.19606905 16.88867123 -9.1875 15.5 C-9.18248666 14.10742344 -9.17792347 12.71484519 -9.17382812 11.32226562 C-9.16199434 7.9023013 -9.1455088 4.48242156 -9.125 1.0625 C-6.12186252 -0.43906874 -3.33432478 -0.03031204 0 0 Z " fill="#202374" transform="translate(54.125,124.9375)"/>
<path d="M0 0 C5.61 0 11.22 0 17 0 C18 4 18 4 17 6 C13.04 6 9.08 6 5 6 C5.33 7.32 5.66 8.64 6 10 C7.2375 9.95875 8.475 9.9175 9.75 9.875 C13.01637962 9.86341709 15.2146947 10.1431298 18 12 C17.67 13.65 17.34 15.3 17 17 C13.04 17 9.08 17 5 17 C5 19.31 5 21.62 5 24 C8.96 24 12.92 24 17 24 C17 25.98 17 27.96 17 30 C11.39 30 5.78 30 0 30 C0 20.1 0 10.2 0 0 Z " fill="#2E316E" transform="translate(112,126)"/>
<path d="M0 0 C2.4149259 0.85689009 3.7081808 1.58361212 5.18847656 3.69580078 C5.50268555 4.35563965 5.81689453 5.01547852 6.140625 5.6953125 C6.66269531 6.76845703 6.66269531 6.76845703 7.1953125 7.86328125 C7.54335937 8.60964844 7.89140625 9.35601562 8.25 10.125 C8.61351563 10.87910156 8.97703125 11.63320312 9.3515625 12.41015625 C10.24531269 14.26821586 11.12412375 16.13344818 12 18 C12.26554687 17.13117188 12.53109375 16.26234375 12.8046875 15.3671875 C13.98047611 12.05499868 15.4077778 9.18613522 17.125 6.125 C17.66382812 5.15820312 18.20265625 4.19140625 18.7578125 3.1953125 C19.16773437 2.47085938 19.57765625 1.74640625 20 1 C21.65 1 23.3 1 25 1 C24.49244913 7.2597941 21.65707464 12.4187374 19 18 C17.89352386 20.39476762 16.78934402 22.7905976 15.6875 25.1875 C14.7919864 27.1251478 13.89626987 29.0627019 13 31 C10 30 10 30 8.88085938 28.14575195 C8.53861328 27.35128662 8.19636719 26.55682129 7.84375 25.73828125 C7.46089844 24.86623047 7.07804687 23.99417969 6.68359375 23.09570312 C6.29300781 22.17724609 5.90242188 21.25878906 5.5 20.3125 C4.71979106 18.51647448 3.93856469 16.72089055 3.15625 14.92578125 C2.78886719 14.07322754 2.42148438 13.22067383 2.04296875 12.34228516 C1.16834287 10.37806214 0.20358025 8.45431693 -0.78125 6.54296875 C-2 4 -2 4 -2 1 C-1.34 0.67 -0.68 0.34 0 0 Z " fill="#23266D" transform="translate(75,125)"/>
<path d="M0 0 C0 1.65 0 3.3 0 5 C-4.0527516 5.98248524 -7.83861737 6.08159574 -12 6 C-11.67 7.32 -11.34 8.64 -11 10 C-7.37 10.33 -3.74 10.66 0 11 C0 12.65 0 14.3 0 16 C-1 17 -1 17 -3.50390625 17.09765625 C-6.3359375 17.06510417 -9.16796875 17.03255208 -12 17 C-12 21.29 -12 25.58 -12 30 C-13.65 30 -15.3 30 -17 30 C-17 20.1 -17 10.2 -17 0 C-5 -1 -5 -1 0 0 Z " fill="#2D2F78" transform="translate(248,126)"/>
<path d="M0 0 C4.80424967 1.89641434 6.26584809 4.89148494 8.30078125 9.35546875 C8.53152344 9.89816406 8.76226562 10.44085938 9 11 C9.66 9.35 10.32 7.7 11 6 C11.66 6 12.32 6 13 6 C13.309375 5.360625 13.61875 4.72125 13.9375 4.0625 C15 2 15 2 16 1 C17.66617115 0.95936168 19.33388095 0.957279 21 1 C20.64030099 5.91588652 19.12455849 8.63318912 16.15625 12.38671875 C14.7975844 14.11455327 14.7975844 14.11455327 14 17 C13.34 17 12.68 17 12 17 C12 21.62 12 26.24 12 31 C10.35 31 8.7 31 7 31 C6.06675921 27.95141341 6.09276243 25.70756735 6.4375 22.5625 C6.58040667 16.16028104 3.22837592 11.85174895 -0.25 6.78515625 C-2 4 -2 4 -2 1 C-1.34 0.67 -0.68 0.34 0 0 Z " fill="#27296F" transform="translate(262,125)"/>
<path d="M0 0 C0.33 0 0.66 0 1 0 C1 2.97 1 5.94 1 9 C2.423125 9.309375 3.84625 9.61875 5.3125 9.9375 C7.95517072 10.51199363 10.42906918 11.14302306 13 12 C13 12.66 13 13.32 13 14 C14.2065625 14.433125 14.2065625 14.433125 15.4375 14.875 C18 16 18 16 19 18 C19.99 18.33 20.98 18.66 22 19 C22.33 19.66 22.66 20.32 23 21 C25.02463255 21.65213292 25.02463255 21.65213292 27 22 C26.67 21.2575 26.34 20.515 26 19.75 C25 17 25 17 25 13 C25.66 12.01 26.32 11.02 27 10 C29.63096039 16.48343811 30.39325819 22.02330843 30 29 C28.02 29.99 28.02 29.99 26 31 C25.67 28.69 25.34 26.38 25 24 C23.68 23.67 22.36 23.34 21 23 C21 22.34 21 21.68 21 21 C19.453125 20.814375 19.453125 20.814375 17.875 20.625 C11.57108024 19.83985476 5.28693067 18.90948576 -1 18 C-1.22786458 15.98177083 -1.45572917 13.96354167 -1.68359375 11.9453125 C-1.91292961 9.92595684 -1.91292961 9.92595684 -3 8 C-2.44140625 6.0546875 -2.44140625 6.0546875 -1.5625 3.875 C-1.27503906 3.15054688 -0.98757812 2.42609375 -0.69140625 1.6796875 C-0.46324219 1.12539062 -0.23507813 0.57109375 0 0 Z " fill="#A6237A" transform="translate(195,81)"/>
<path d="M0 0 C6.27 0 12.54 0 19 0 C19 1.65 19 3.3 19 5 C17.02 5.33 15.04 5.66 13 6 C13.00523682 6.65597168 13.01047363 7.31194336 13.01586914 7.98779297 C13.03661272 10.95018563 13.04965176 13.91256303 13.0625 16.875 C13.07087891 17.90753906 13.07925781 18.94007813 13.08789062 20.00390625 C13.09111328 20.99003906 13.09433594 21.97617188 13.09765625 22.9921875 C13.10289307 23.90339355 13.10812988 24.81459961 13.11352539 25.75341797 C13 28 13 28 12 30 C10.35 30 8.7 30 7 30 C7 22.08 7 14.16 7 6 C4.69 5.67 2.38 5.34 0 5 C0 3.35 0 1.7 0 0 Z " fill="#1E2166" transform="translate(180,126)"/>
<path d="M0 0 C0.33 0 0.66 0 1 0 C1.33 2.64 1.66 5.28 2 8 C4.31 7.34 6.62 6.68 9 6 C6.03 5.505 6.03 5.505 3 5 C6.2764462 3.10974258 9.2283689 2.31430259 13 2 C15.375 2.9375 15.375 2.9375 17 4 C16.67 5.65 16.34 7.3 16 9 C12.04 9 8.08 9 4 9 C4 11.31 4 13.62 4 16 C7.96 16 11.92 16 16 16 C16 17.98 16 19.96 16 22 C10.72 21.67 5.44 21.34 0 21 C0 14.07 0 7.14 0 0 Z " fill="#202370" transform="translate(113,134)"/>
<path d="M0 0 C0.85803148 10.16437295 1.03351814 19.82382142 0 30 C-1.66611905 30.042721 -3.33382885 30.04063832 -5 30 C-7.54564254 27.45435746 -6.33151462 20.66557892 -6.375 17.25 C-6.41238281 16.15171875 -6.44976562 15.0534375 -6.48828125 13.921875 C-6.57503339 5.97923458 -6.57503339 5.97923458 -4.89550781 3.11914062 C-1.84015779 0 -1.84015779 0 0 0 Z " fill="#181A66" transform="translate(217,126)"/>
<path d="M0 0 C0 1.65 0 3.3 0 5 C-4.0527516 5.98248524 -7.83861737 6.08159574 -12 6 C-12 4.68 -12 3.36 -12 2 C-12.99 2 -13.98 2 -15 2 C-14.67 2.99 -14.34 3.98 -14 5 C-14.29665522 6.34197041 -14.6344517 7.67513649 -15 9 C-15.1421701 10.58567839 -15.24504041 12.17518632 -15.31640625 13.765625 C-15.35830078 14.65507812 -15.40019531 15.54453125 -15.44335938 16.4609375 C-15.48267578 17.38132813 -15.52199219 18.30171875 -15.5625 19.25 C-15.60568359 20.18585938 -15.64886719 21.12171875 -15.69335938 22.0859375 C-15.7991805 24.39048641 -15.90126557 26.69513839 -16 29 C-15.34 29.33 -14.68 29.66 -14 30 C-14.99 30 -15.98 30 -17 30 C-17 20.1 -17 10.2 -17 0 C-5 -1 -5 -1 0 0 Z " fill="#2D3373" transform="translate(248,126)"/>
<path d="M0 0 C6.27 0 12.54 0 19 0 C19 1.65 19 3.3 19 5 C16.36 4.67 13.72 4.34 11 4 C11 11.92 11 19.84 11 28 C10.34 28 9.68 28 9 28 C9 20.08 9 12.16 9 4 C6.69 4 4.38 4 2 4 C2 3.01 2 2.02 2 1 C1.34 0.67 0.68 0.34 0 0 Z " fill="#2C3079" transform="translate(180,126)"/>
<path d="M0 0 C0.33 0.99 0.66 1.98 1 3 C1.61875 3.28875 2.2375 3.5775 2.875 3.875 C5.70933445 5.37553 6.58610503 7.17221007 8 10 C8 10.66 8 11.32 8 12 C8.53625 12.103125 9.0725 12.20625 9.625 12.3125 C12.62502044 13.18092697 15.2379535 14.55620296 18 16 C17 19 17 19 15 20 C12.40212471 20.15144564 9.84891179 20.23136981 7.25 20.25 C6.19425781 20.2809375 6.19425781 20.2809375 5.1171875 20.3125 C0.33114171 20.34808398 -2.79337218 19.51339398 -7 17 C-4.58464752 15.79232376 -3.52153592 16.02206964 -0.8671875 16.33984375 C-0.06152344 16.43330078 0.74414062 16.52675781 1.57421875 16.62304688 C2.41597656 16.72681641 3.25773438 16.83058594 4.125 16.9375 C4.97449219 17.03740234 5.82398438 17.13730469 6.69921875 17.24023438 C8.80012277 17.48809384 10.90015149 17.74335185 13 18 C13.33 17.34 13.66 16.68 14 16 C11.2492612 14.86734285 8.7318324 13.94215993 5.8125 13.3125 C3 12 3 12 1.6875 8.5625 C1.460625 7.386875 1.23375 6.21125 1 5 C0.67 4.01 0.34 3.02 0 2 C-3.3 2.33 -6.6 2.66 -10 3 C-9 1 -9 1 -7.25 0.375 C-4.79549443 -0.03408426 -2.4840589 -0.06900164 0 0 Z " fill="#1254A7" transform="translate(198,101)"/>
<path d="M0 0 C1.9375 0.6875 1.9375 0.6875 4 2 C4.625 4.5625 4.625 4.5625 5 7 C5.66 7.33 6.32 7.66 7 8 C7.33 8.99 7.66 9.98 8 11 C6.35 11.33 4.7 11.66 3 12 C3.165 12.61875 3.33 13.2375 3.5 13.875 C4.20075317 18.25470729 4.07734251 22.57428989 4 27 C2.68 27.33 1.36 27.66 0 28 C-0.19581346 23.52115561 -0.3802636 19.04191574 -0.5625 14.5625 C-0.61857422 13.28310547 -0.67464844 12.00371094 -0.73242188 10.68554688 C-0.78076172 9.47060547 -0.82910156 8.25566406 -0.87890625 7.00390625 C-0.9260376 5.87799072 -0.97316895 4.7520752 -1.02172852 3.59204102 C-1 1 -1 1 0 0 Z " fill="#31347F" transform="translate(142,126)"/>
<path d="M0 0 C0.61875 0.70125 1.2375 1.4025 1.875 2.125 C8.42945139 8.60559842 15.93738241 11.88163443 25 13 C24.67 13.66 24.34 14.32 24 15 C20.57893513 14.86693868 17.16637934 14.65913929 13.75 14.4375 C12.29787109 14.38239258 12.29787109 14.38239258 10.81640625 14.32617188 C3.82102946 13.81961011 3.82102946 13.81961011 1.4465332 11.44921875 C-0.57911798 8.02167834 -1.58174041 4.95583479 -1 1 C-0.67 0.67 -0.34 0.34 0 0 Z " fill="#0A85CB" transform="translate(187,105)"/>
<path d="M0 0 C0.99 0.66 1.98 1.32 3 2 C3.40843923 4.71203652 3.13336867 7.2437142 3 10 C4.32 10.33 5.64 10.66 7 11 C3.7 11.33 0.4 11.66 -3 12 C-3.33 12.99 -3.66 13.98 -4 15 C-6.46468444 13.15148667 -6.96547258 12.2268945 -7.4375 9.125 C-6.90088229 5.29201639 -5.71255676 3.71255676 -3 1 C-2.01 0.67 -1.02 0.34 0 0 Z " fill="#60388E" transform="translate(191,89)"/>
<path d="M0 0 C0.99 0.66 1.98 1.32 3 2 C3.328125 3.875 3.328125 3.875 3.25 6 C3.23453125 6.70125 3.2190625 7.4025 3.203125 8.125 C3 10 3 10 2 12 C0.02 11.34 -1.96 10.68 -4 10 C-4 10.66 -4 11.32 -4 12 C-5.32 11.34 -6.64 10.68 -8 10 C-8 7.36 -8 4.72 -8 2 C-6.68 1.67 -5.36 1.34 -4 1 C-3.34 1.99 -2.68 2.98 -2 4 C-1.34 2.68 -0.68 1.36 0 0 Z " fill="#BA4C75" transform="translate(250,162)"/>
<path d="M0 0 C0.99 0 1.98 0 3 0 C3.103125 0.556875 3.20625 1.11375 3.3125 1.6875 C4.13569086 4.45641471 5.50518116 6.52779961 7 9 C7.51273304 10.24483125 8.01241333 11.49510589 8.5 12.75 C8.995 13.8225 9.49 14.895 10 16 C10.99 16.33 11.98 16.66 13 17 C13.66 16.67 14.32 16.34 15 16 C14.34 18.31 13.68 20.62 13 23 C10 22 10 22 8 19 C8 18.01 8 17.02 8 16 C7.01 16 6.02 16 5 16 C3.96728358 13.90163996 2.94916283 11.79609109 1.9375 9.6875 C1.36902344 8.51574219 0.80054687 7.34398437 0.21484375 6.13671875 C-1 3 -1 3 0 0 Z " fill="#242775" transform="translate(75,128)"/>
<path d="M0 0 C0.99 0.33 1.98 0.66 3 1 C0.0918968 4.9986419 -3.23476005 7.98475945 -6.9765625 11.15625 C-9.47653529 13.43421748 -11.53112362 15.93200334 -13.578125 18.6171875 C-15.30504982 20.29666933 -16.65469748 20.60911625 -19 21 C-18.8125 18.625 -18.8125 18.625 -18 16 C-16.35965807 15.27095914 -14.68698082 14.61344757 -13 14 C-10.2704415 11.52093031 -10.2704415 11.52093031 -8 9 C-7.67 8.67 -7.34 8.34 -7 8 C-8.98 8 -10.96 8 -13 8 C-12.67 5.69 -12.34 3.38 -12 1 C-10 3 -10 3 -10 6 C-9.278125 5.566875 -8.55625 5.13375 -7.8125 4.6875 C-6.4203125 3.8521875 -6.4203125 3.8521875 -5 3 C-4.13375 2.4225 -3.2675 1.845 -2.375 1.25 C-1.59125 0.8375 -0.8075 0.425 0 0 Z " fill="#3D2D86" transform="translate(230,106)"/>
<path d="M0 0 C2.475 0.99 2.475 0.99 5 2 C5.33 1.34 5.66 0.68 6 0 C6.99 0 7.98 0 9 0 C9 3.3 9 6.6 9 10 C7.68 9.67 6.36 9.34 5 9 C4.34 9 3.68 9 3 9 C2.67 9.66 2.34 10.32 2 11 C1.01 10.67 0.02 10.34 -1 10 C-1.02689216 8.52093108 -1.04634621 7.04172517 -1.0625 5.5625 C-1.07410156 4.73878906 -1.08570313 3.91507813 -1.09765625 3.06640625 C-1 1 -1 1 0 0 Z " fill="#CC4B85" transform="translate(174,163)"/>
<path d="M0 0 C4.29 0 8.58 0 13 0 C13.33 0.99 13.66 1.98 14 3 C12.54176788 3.0270043 11.08339325 3.04639787 9.625 3.0625 C8.81289062 3.07410156 8.00078125 3.08570313 7.1640625 3.09765625 C5 3 5 3 3 2 C3 3.98 3 5.96 3 8 C6.465 9.98 6.465 9.98 10 12 C9.67 12.66 9.34 13.32 9 14 C5.5 14.5 5.5 14.5 2 15 C1.67 15.66 1.34 16.32 1 17 C0.67 11.39 0.34 5.78 0 0 Z " fill="#2C3085" transform="translate(113,127)"/>
<path d="M0 0 C0.33 0 0.66 0 1 0 C1.66 5.28 2.32 10.56 3 16 C7.88974373 16.90676183 7.88974373 16.90676183 12.78295898 17.79443359 C14.53559269 18.13197096 16.26927718 18.56381783 18 19 C18.33 19.66 18.66 20.32 19 21 C16.41626766 20.69055299 13.83304867 20.37756043 11.25 20.0625 C10.52039063 19.97548828 9.79078125 19.88847656 9.0390625 19.79882812 C5.62415558 19.37972591 2.32396457 18.882726 -1 18 C-1.22786458 15.98177083 -1.45572917 13.96354167 -1.68359375 11.9453125 C-1.91292961 9.92595684 -1.91292961 9.92595684 -3 8 C-2.44140625 6.0546875 -2.44140625 6.0546875 -1.5625 3.875 C-1.27503906 3.15054688 -0.98757812 2.42609375 -0.69140625 1.6796875 C-0.46324219 1.12539062 -0.23507813 0.57109375 0 0 Z " fill="#912E80" transform="translate(195,81)"/>
<path d="M0 0 C1.4540625 0.0309375 1.4540625 0.0309375 2.9375 0.0625 C4.28765859 4.11297576 3.55834998 6.8545168 2.9375 11.0625 C0.9575 11.0625 -1.0225 11.0625 -3.0625 11.0625 C-4.68901522 7.80946956 -4.17703156 4.67024398 -4.0625 1.0625 C-3.0625 0.0625 -3.0625 0.0625 0 0 Z " fill="#BD5B8D" transform="translate(233.0625,162.9375)"/>
<path d="M0 0 C1.4540625 0.0309375 1.4540625 0.0309375 2.9375 0.0625 C4.28765859 4.11297576 3.55834998 6.8545168 2.9375 11.0625 C0.5625 11.1875 0.5625 11.1875 -2.0625 11.0625 C-4.0625 9.0625 -4.0625 9.0625 -4.29296875 7.15234375 C-4.15187305 0.0847321 -4.15187305 0.0847321 0 0 Z " fill="#BB5582" transform="translate(204.0625,162.9375)"/>
<path d="M0 0 C1.2065625 0.0309375 1.2065625 0.0309375 2.4375 0.0625 C2.07780099 4.97838652 0.56205849 7.69568912 -2.40625 11.44921875 C-3.7649156 13.17705327 -3.7649156 13.17705327 -4.5625 16.0625 C-5.5525 15.7325 -6.5425 15.4025 -7.5625 15.0625 C-6.2425 12.4225 -4.9225 9.7825 -3.5625 7.0625 C-4.2225 7.0625 -4.8825 7.0625 -5.5625 7.0625 C-6.2225 8.3825 -6.8825 9.7025 -7.5625 11.0625 C-8.80796405 8.57157189 -8.3392578 7.65169267 -7.5625 5.0625 C-6.9025 5.0625 -6.2425 5.0625 -5.5625 5.0625 C-5.0984375 4.1034375 -5.0984375 4.1034375 -4.625 3.125 C-3.05351796 0.07447605 -3.05351796 0.07447605 0 0 Z " fill="#182467" transform="translate(280.5625,125.9375)"/>
<path d="M0 0 C1.2065625 0.0309375 1.2065625 0.0309375 2.4375 0.0625 C4.90727731 6.45486479 4.90727731 6.45486479 3.4375 10.0625 C2.4375 11.0625 2.4375 11.0625 -0.125 11.125 C-0.929375 11.104375 -1.73375 11.08375 -2.5625 11.0625 C-3.60278969 7.68155851 -3.71922777 4.58887472 -3.5625 1.0625 C-2.5625 0.0625 -2.5625 0.0625 0 0 Z " fill="#9F476C" transform="translate(136.5625,162.9375)"/>
<path d="M0 0 C1.4540625 0.0309375 1.4540625 0.0309375 2.9375 0.0625 C2.9375 3.6925 2.9375 7.3225 2.9375 11.0625 C1.2875 11.0625 -0.3625 11.0625 -2.0625 11.0625 C-4.0625 9.0625 -4.0625 9.0625 -4.29296875 7.15234375 C-4.15187305 0.0847321 -4.15187305 0.0847321 0 0 Z " fill="#9F5678" transform="translate(102.0625,162.9375)"/>
<path d="M0 0 C3.96975938 3.96975938 4.125 9.08012382 4.125 14.4375 C4.09326375 15.95857296 4.05506505 17.47959282 4 19 C2.02 19.99 2.02 19.99 0 21 C-0.33 18.03 -0.66 15.06 -1 12 C-0.34 12 0.32 12 1 12 C0.67 11.2575 0.34 10.515 0 9.75 C-1.32776879 6.09863584 -1.22386872 3.67160615 0 0 Z " fill="#D42A7B" transform="translate(221,91)"/>
<path d="M0 0 C0.99 0 1.98 0 3 0 C6.07692308 6.4 6.07692308 6.4 5.6875 9.4375 C5.460625 9.953125 5.23375 10.46875 5 11 C4.2575 10.835 3.515 10.67 2.75 10.5 C-0.19006578 9.88074304 -0.19006578 9.88074304 -4 10 C-3.52449439 8.51965236 -3.04448784 7.04074979 -2.5625 5.5625 C-2.29566406 4.73878906 -2.02882812 3.91507813 -1.75390625 3.06640625 C-1 1 -1 1 0 0 Z " fill="#A35076" transform="translate(161,163)"/>
<path d="M0 0 C0.33 0.66 0.66 1.32 1 2 C0.23876226 3.44485909 -0.58609307 4.85636915 -1.4375 6.25 C-4.86373383 12.70494882 -4.46282849 18.86215621 -4 26 C-5.32 25.67 -6.64 25.34 -8 25 C-7.01 25 -6.02 25 -5 25 C-5.99 24.67 -6.98 24.34 -8 24 C-7.98839844 23.26394531 -7.97679687 22.52789062 -7.96484375 21.76953125 C-7.95582031 20.79371094 -7.94679688 19.81789062 -7.9375 18.8125 C-7.92589844 17.84957031 -7.91429687 16.88664062 -7.90234375 15.89453125 C-7.99513378 13.14423487 -8.37888315 10.67520409 -9 8 C-7.68 7.67 -6.36 7.34 -5 7 C-4.9175 6.21625 -4.835 5.4325 -4.75 4.625 C-4 2 -4 2 -1.9375 0.6875 C-1.298125 0.460625 -0.65875 0.23375 0 0 Z " fill="#2F3285" transform="translate(278,130)"/>
<path d="M0 0 C1.51400391 0.01740234 1.51400391 0.01740234 3.05859375 0.03515625 C4.07050781 0.04417969 5.08242188 0.05320312 6.125 0.0625 C7.29869141 0.07990234 7.29869141 0.07990234 8.49609375 0.09765625 C8.82609375 1.41765625 9.15609375 2.73765625 9.49609375 4.09765625 C8.86960937 4.07445312 8.243125 4.05125 7.59765625 4.02734375 C6.78039063 4.00929687 5.963125 3.99125 5.12109375 3.97265625 C3.90292969 3.93785156 3.90292969 3.93785156 2.66015625 3.90234375 C0.28267132 3.88395574 0.28267132 3.88395574 -1.50390625 6.09765625 C-1.18064072 9.69444691 -1.18064072 9.69444691 -0.50390625 13.09765625 C-1.16390625 13.09765625 -1.82390625 13.09765625 -2.50390625 13.09765625 C-2.83390625 13.75765625 -3.16390625 14.41765625 -3.50390625 15.09765625 C-3.53076037 12.78521833 -3.55023466 10.47269355 -3.56640625 8.16015625 C-3.57800781 6.87238281 -3.58960938 5.58460938 -3.6015625 4.2578125 C-3.47417331 0.13549818 -3.47417331 0.13549818 0 0 Z " fill="#2C3081" transform="translate(50.50390625,125.90234375)"/>
<path d="M0 0 C1.32 0.66 2.64 1.32 4 2 C4.66 1.34 5.32 0.68 6 0 C6.99 0 7.98 0 9 0 C8.49287967 3.71888239 7.88391785 6.73454239 6 10 C4.1875 9.875 4.1875 9.875 2 9 C0.1875 6.125 0.1875 6.125 -1 3 C-0.67 2.01 -0.34 1.02 0 0 Z " fill="#B65882" transform="translate(214,163)"/>
<path d="M0 0 C0.33 0 0.66 0 1 0 C1 8.58 1 17.16 1 26 C1.99 25.34 2.98 24.68 4 24 C4.28867729 21.92457547 4.28867729 21.92457547 4.0625 19.625 C3.80507828 15.67786697 4.08412874 14.83174251 6 11 C6 16.61 6 22.22 6 28 C4.35 28 2.7 28 1 28 C0 27 0 27 -0.11352539 24.40795898 C-0.10828857 23.28204346 -0.10305176 22.15612793 -0.09765625 20.99609375 C-0.09443359 19.78115234 -0.09121094 18.56621094 -0.08789062 17.31445312 C-0.07951172 16.03505859 -0.07113281 14.75566406 -0.0625 13.4375 C-0.05798828 12.15423828 -0.05347656 10.87097656 -0.04882812 9.54882812 C-0.03699545 6.36583978 -0.02051068 3.18294238 0 0 Z " fill="#191A68" transform="translate(141,128)"/>
<path d="M0 0 C1.4540625 0.0309375 1.4540625 0.0309375 2.9375 0.0625 C2.9375 2.0425 2.9375 4.0225 2.9375 6.0625 C1.9475 6.3925 0.9575 6.7225 -0.0625 7.0625 C-0.79573796 9.07758358 -0.79573796 9.07758358 -1.0625 11.0625 C-2.0525 10.7325 -3.0425 10.4025 -4.0625 10.0625 C-4.08939216 8.58343108 -4.10884621 7.10422517 -4.125 5.625 C-4.13660156 4.80128906 -4.14820312 3.97757813 -4.16015625 3.12890625 C-4.00103255 -0.23815127 -3.43619093 0.07012635 0 0 Z " fill="#C4558D" transform="translate(89.0625,162.9375)"/>
<path d="M0 0 C0.66 0 1.32 0 2 0 C2 6.93 2 13.86 2 21 C1.01 20.67 0.02 20.34 -1 20 C-1.02696009 17.2291017 -1.04681952 14.4584655 -1.0625 11.6875 C-1.07087891 10.90181641 -1.07925781 10.11613281 -1.08789062 9.30664062 C-1.09111328 8.54931641 -1.09433594 7.79199219 -1.09765625 7.01171875 C-1.10289307 6.31522217 -1.10812988 5.61872559 -1.11352539 4.90112305 C-1 3 -1 3 0 0 Z " fill="#2D3185" transform="translate(213,133)"/>
<path d="M0 0 C2 2 2 2 2 5 C5.96 5.33 9.92 5.66 14 6 C14 6.99 14 7.98 14 9 C9.38 9 4.76 9 0 9 C0 6.03 0 3.06 0 0 Z " fill="#282B71" transform="translate(114,145)"/>
<path d="M0 0 C0.99 0 1.98 0 3 0 C3.16852247 1.60397277 3.33474886 3.2081869 3.5 4.8125 C3.5928125 5.70582031 3.685625 6.59914062 3.78125 7.51953125 C4 10 4 10 4 13 C3.01 13.33 2.02 13.66 1 14 C1 17.3 1 20.6 1 24 C0.67 24 0.34 24 0 24 C-0.19647038 21.31288976 -0.38239615 18.62571669 -0.5625 15.9375 C-0.61857422 15.18533203 -0.67464844 14.43316406 -0.73242188 13.65820312 C-1.04000617 8.92140498 -0.83807173 4.67457788 0 0 Z " fill="#2F3288" transform="translate(233,128)"/>
<path d="M0 0 C0.33 0.66 0.66 1.32 1 2 C1.66 2.33 2.32 2.66 3 3 C2.67 9.6 2.34 16.2 2 23 C0.35 23 -1.3 23 -3 23 C-2.505 21.515 -2.505 21.515 -2 20 C-1.34 20.33 -0.68 20.66 0 21 C0 14.07 0 7.14 0 0 Z " fill="#1D2067" transform="translate(215,133)"/>
<path d="M0 0 C1.32 0 2.64 0 4 0 C4 8.58 4 17.16 4 26 C3.34 26 2.68 26 2 26 C2 18.08 2 10.16 2 2 C1.34 2 0.68 2 0 2 C0 1.34 0 0.68 0 0 Z " fill="#2E318A" transform="translate(187,128)"/>
<path d="M0 0 C6.04364596 -0.25181858 11.21856386 0.14168124 17 2 C17.33 2.66 17.66 3.32 18 4 C18.99 4.33 19.98 4.66 21 5 C21.33 7.31 21.66 9.62 22 12 C20 9 20 9 20 7 C17.525 6.505 17.525 6.505 15 6 C15 5.34 15 4.68 15 4 C12.69 4 10.38 4 8 4 C8 3.34 8 2.68 8 2 C5.69 2 3.38 2 1 2 C0.67 1.34 0.34 0.68 0 0 Z " fill="#4F2985" transform="translate(199,100)"/>
<path d="M0 0 C1.65 0 3.3 0 5 0 C6.25433458 3.76300374 6.10695422 7.27210909 6.0625 11.1875 C6.05798828 11.93708984 6.05347656 12.68667969 6.04882812 13.45898438 C6.03706354 15.30602383 6.01912865 17.15302213 6 19 C5.67 19 5.34 19 5 19 C4.67 13.39 4.34 7.78 4 2 C3.34 2 2.68 2 2 2 C2.01160156 2.66386719 2.02320313 3.32773438 2.03515625 4.01171875 C2.12478032 12.78207381 2.12478032 12.78207381 1 17 C0.67 17 0.34 17 0 17 C0 11.39 0 5.78 0 0 Z " fill="#1E2050" transform="translate(163,126)"/>
<path d="M0 0 C1.98 0 3.96 0 6 0 C6 4.08378077 5.19287411 7.12315913 4 11 C3.01 10.67 2.02 10.34 1 10 C0.67 6.7 0.34 3.4 0 0 Z " fill="#AE5075" transform="translate(259,163)"/>
<path d="M0 0 C0.99 0.33 1.98 0.66 3 1 C3.66 4.3 4.32 7.6 5 11 C4.01 11.33 3.02 11.66 2 12 C1.01 11.34 0.02 10.68 -1 10 C-1.328125 7.87109375 -1.328125 7.87109375 -1.25 5.4375 C-1.23453125 4.63183594 -1.2190625 3.82617188 -1.203125 2.99609375 C-1 1 -1 1 0 0 Z " fill="#9F496D" transform="translate(64,163)"/>
<path d="M0 0 C4.42252076 1.79116707 7.82320464 4.4419892 11 8 C10.67 8.66 10.34 9.32 10 10 C9.113125 9.21625 8.22625 8.4325 7.3125 7.625 C3.88019075 4.78085642 0.9384074 3.18911292 -3.5625 2.75 C-6.14575351 3.01494908 -7.78049643 3.68473863 -10 5 C-10 4.01 -10 3.02 -10 2 C-6.22786948 -0.51475368 -4.47964158 -0.44796416 0 0 Z " fill="#BD3270" transform="translate(207,76)"/>
<path d="M0 0 C2.32590854 3.63423209 2.16265833 6.77088331 2 11 C-5.80251346 6.87791741 -5.80251346 6.87791741 -8 3 C-8 2.34 -8 1.68 -8 1 C-6.824375 1.495 -6.824375 1.495 -5.625 2 C-3.15667503 3.11866511 -3.15667503 3.11866511 -1 3 C-0.67 2.01 -0.34 1.02 0 0 Z " fill="#2F318A" transform="translate(165,142)"/>
<path d="M0 0 C0.99 0.33 1.98 0.66 3 1 C3.33 2.98 3.66 4.96 4 7 C0.04 7 -3.92 7 -8 7 C-8.33 8.65 -8.66 10.3 -9 12 C-9.33 12 -9.66 12 -10 12 C-10.33 10.02 -10.66 8.04 -11 6 C-7.17010894 4.19769832 -4.21878192 3.80377759 0 4 C0 2.68 0 1.36 0 0 Z " fill="#1E2065" transform="translate(59,125)"/>
<path d="M0 0 C1.2065625 0.0309375 1.2065625 0.0309375 2.4375 0.0625 C1.93237476 6.29237798 -0.88854123 11.51724233 -3.5625 17.0625 C-4.2225 16.7325 -4.8825 16.4025 -5.5625 16.0625 C-4.07079734 11.0901578 -1.95792583 6.64404261 0.4375 2.0625 C-0.8825 1.7325 -2.2025 1.4025 -3.5625 1.0625 C-2.5625 0.0625 -2.5625 0.0625 0 0 Z " fill="#1F2158" transform="translate(97.5625,125.9375)"/>
<path d="M0 0 C3.29305731 0.27716937 6.5840249 0.57418781 9.875 0.875 C10.81214844 0.95363281 11.74929687 1.03226562 12.71484375 1.11328125 C14.05869141 1.23896484 14.05869141 1.23896484 15.4296875 1.3671875 C16.25710449 1.44050293 17.08452148 1.51381836 17.93701172 1.58935547 C20 2 20 2 22 4 C19.45767658 4.08152344 16.91800798 4.14073716 14.375 4.1875 C13.30572266 4.22520508 13.30572266 4.22520508 12.21484375 4.26367188 C7.37723584 4.33024446 4.25261662 3.55559453 0 1 C0 0.67 0 0.34 0 0 Z " fill="#1B6F9F" transform="translate(191,117)"/>
<path d="M0 0 C0.99 0.33 1.98 0.66 3 1 C3 3.97 3 6.94 3 10 C1.68 10 0.36 10 -1 10 C-1.02689216 8.52093108 -1.04634621 7.04172517 -1.0625 5.5625 C-1.07410156 4.73878906 -1.08570312 3.91507813 -1.09765625 3.06640625 C-1 1 -1 1 0 0 Z " fill="#B36383" transform="translate(76,163)"/>
<path d="M0 0 C2.31 0 4.62 0 7 0 C7 1.65 7 3.3 7 5 C0.25 5.125 0.25 5.125 -2 4 C-2 3.34 -2 2.68 -2 2 C-1.34 2 -0.68 2 0 2 C0 1.34 0 0.68 0 0 Z " fill="#2E3381" transform="translate(241,137)"/>
<path d="M0 0 C0 3 0 3 -1.390625 4.68359375 C-2.00421875 5.26238281 -2.6178125 5.84117188 -3.25 6.4375 C-3.88808594 7.0459375 -4.52617187 7.654375 -5.18359375 8.28125 C-6.08271484 9.13203125 -6.08271484 9.13203125 -7 10 C-8.1446875 11.2065625 -8.1446875 11.2065625 -9.3125 12.4375 C-11 14 -11 14 -13 14 C-12.8125 11.625 -12.8125 11.625 -12 9 C-10.35965807 8.27095914 -8.68698082 7.61344757 -7 7 C-4.31232422 4.56249975 -4.31232422 4.56249975 -2 2 C-1.34 1.34 -0.68 0.68 0 0 Z " fill="#232D67" transform="translate(224,113)"/>
<path d="M0 0 C1.0625 1.875 1.0625 1.875 2 4 C1.67 4.66 1.34 5.32 1 6 C-2.96 6 -6.92 6 -11 6 C-11.33 7.32 -11.66 8.64 -12 10 C-13.125 5.25 -13.125 5.25 -12 3 C-8.37 3.33 -4.74 3.66 -1 4 C-1.33 3.01 -1.66 2.02 -2 1 C-1.34 0.67 -0.68 0.34 0 0 Z " fill="#252770" transform="translate(128,126)"/>
<path d="M0 0 C0.33 0.99 0.66 1.98 1 3 C1.61875 3.268125 2.2375 3.53625 2.875 3.8125 C5.92295549 5.51576924 6.64076848 7.8737675 8 11 C4.20620942 9.50958227 2.31656242 7.30937488 0 4 C0 3.34 0 2.68 0 2 C-3.3 2.33 -6.6 2.66 -10 3 C-9 1 -9 1 -7.25 0.375 C-4.79549443 -0.03408426 -2.4840589 -0.06900164 0 0 Z " fill="#174A9F" transform="translate(198,101)"/>
<path d="M0 0 C0.99 0 1.98 0 3 0 C3.185625 0.9590625 3.185625 0.9590625 3.375 1.9375 C3.684375 2.9584375 3.684375 2.9584375 4 4 C4.66 4.33 5.32 4.66 6 5 C6.33 5.99 6.66 6.98 7 8 C2.25 7.125 2.25 7.125 0 6 C0 4.02 0 2.04 0 0 Z " fill="#2E318C" transform="translate(143,129)"/>
<path d="M0 0 C2.625 -0.1875 2.625 -0.1875 5 0 C3.71937515 1.7074998 2.38232443 3.37373596 1 5 C0.34 5 -0.32 5 -1 5 C-1.66 6.32 -2.32 7.64 -3 9 C-3.99 9 -4.98 9 -6 9 C-6 7 -6 7 -4.125 5.0625 C-3.42375 4.381875 -2.7225 3.70125 -2 3 C-1.34 2.01 -0.68 1.02 0 0 Z " fill="#263288" transform="translate(219,113)"/>
<path d="M0 0 C2.80500965 4.20751447 3.12829139 7.24985414 3.0625 12.25 C3.05347656 13.14203125 3.04445312 14.0340625 3.03515625 14.953125 C3.02355469 15.62859375 3.01195312 16.3040625 3 17 C1.02 17.99 1.02 17.99 -1 19 C-1 16 -1 16 1 14 C1.02106594 10.63576801 1.02106594 10.63576801 0.625 6.875 C0.51414063 5.59367187 0.40328125 4.31234375 0.2890625 2.9921875 C0.19367188 2.00476563 0.09828125 1.01734375 0 0 Z " fill="#A23B74" transform="translate(222,93)"/>
<path d="M0 0 C0.99 0.66 1.98 1.32 3 2 C-1.625 5 -1.625 5 -5 5 C-5 7.31 -5 9.62 -5 12 C-5.66 12 -6.32 12 -7 12 C-7.35288435 8.2064932 -7.28393415 6.44058747 -5.1875 3.1875 C-3 1 -3 1 0 0 Z " fill="#472F5D" transform="translate(191,89)"/>
<path d="M0 0 C0.66 0 1.32 0 2 0 C4.09230769 4.43076923 4.09230769 4.43076923 3.625 7.3125 C3.41875 7.869375 3.2125 8.42625 3 9 C2.34 8.67 1.68 8.34 1 8 C1 7.34 1 6.68 1 6 C-0.32 5.67 -1.64 5.34 -3 5 C-1.625 2.5 -1.625 2.5 0 0 Z " fill="#C15082" transform="translate(163,165)"/>
<path d="M0 0 C1.98 0 3.96 0 6 0 C5.34 2.31 4.68 4.62 4 7 C2.68 6.67 1.36 6.34 0 6 C0 4.02 0 2.04 0 0 Z " fill="#C85C8F" transform="translate(98,165)"/>
<path d="M0 0 C1.875 0.3125 1.875 0.3125 4 1 C6 4 6 4 6 7 C4.02 7 2.04 7 0 7 C0 4.69 0 2.38 0 0 Z " fill="#C25382" transform="translate(135,165)"/>
<path d="M0 0 C0.99 0 1.98 0 3 0 C3 3.3 3 6.6 3 10 C1.68 9.67 0.36 9.34 -1 9 C-1 6 -1 6 1 3 C0.34 2.67 -0.32 2.34 -1 2 C-0.67 1.34 -0.34 0.68 0 0 Z " fill="#AD4E77" transform="translate(180,163)"/>
<path d="M0 0 C0.99 0 1.98 0 3 0 C3 3.3 3 6.6 3 10 C2.01 10 1.02 10 0 10 C0 6.7 0 3.4 0 0 Z " fill="#8C4B63" transform="translate(123,163)"/>
<path d="M0 0 C1.65 0.33 3.3 0.66 5 1 C5 2.65 5 4.3 5 6 C4.01 6.33 3.02 6.66 2 7 C0.4375 5.75 0.4375 5.75 -1 4 C-0.6875 1.8125 -0.6875 1.8125 0 0 Z " fill="#272964" transform="translate(243,125)"/>
<path d="M0 0 C1.4540625 0.0309375 1.4540625 0.0309375 2.9375 0.0625 C2.6075 1.0525 2.2775 2.0425 1.9375 3.0625 C0.2875 2.7325 -1.3625 2.4025 -3.0625 2.0625 C-3.0625 4.0425 -3.0625 6.0225 -3.0625 8.0625 C-2.0725 8.0625 -1.0825 8.0625 -0.0625 8.0625 C-0.3925 9.0525 -0.7225 10.0425 -1.0625 11.0625 C-2.0525 10.7325 -3.0425 10.4025 -4.0625 10.0625 C-4.08939216 8.58343108 -4.10884621 7.10422517 -4.125 5.625 C-4.13660156 4.80128906 -4.14820312 3.97757813 -4.16015625 3.12890625 C-4.00103255 -0.23815127 -3.43619093 0.07012635 0 0 Z " fill="#A55274" transform="translate(89.0625,162.9375)"/>
<path d="M0 0 C0.33 0 0.66 0 1 0 C1 4.29 1 8.58 1 13 C-4.75 9.375 -4.75 9.375 -7 6 C-6.34 5.67 -5.68 5.34 -5 5 C-5 5.66 -5 6.32 -5 7 C-3.68 7.66 -2.36 8.32 -1 9 C-1.020625 7.88625 -1.04125 6.7725 -1.0625 5.625 C-1 2 -1 2 0 0 Z " fill="#2C2C70" transform="translate(167,143)"/>
<path d="M0 0 C0.99 0 1.98 0 3 0 C3.12375 0.61875 3.2475 1.2375 3.375 1.875 C3.87197356 4.19120832 3.87197356 4.19120832 6 6 C6.125 8.625 6.125 8.625 6 11 C3 9 3 9 2.3125 6.375 C2.209375 5.59125 2.10625 4.8075 2 4 C1.01 3.67 0.02 3.34 -1 3 C-0.67 2.01 -0.34 1.02 0 0 Z " fill="#2D2F84" transform="translate(75,128)"/>
<path d="M0 0 C0.99 0.33 1.98 0.66 3 1 C2.65066406 1.47050781 2.30132812 1.94101563 1.94140625 2.42578125 C1.48636719 3.04839844 1.03132813 3.67101562 0.5625 4.3125 C0.11003906 4.92738281 -0.34242188 5.54226562 -0.80859375 6.17578125 C-2.17336308 8.09677101 -2.17336308 8.09677101 -3 11 C-3.99 10.67 -4.98 10.34 -6 10 C-4.02 6.7 -2.04 3.4 0 0 Z " fill="#1A1D60" transform="translate(279,131)"/>
<path d="M0 0 C2.475 0.495 2.475 0.495 5 1 C5 1.66 5 2.32 5 3 C4.34 3 3.68 3 3 3 C3 3.66 3 4.32 3 5 C5.64 5.33 8.28 5.66 11 6 C11 6.33 11 6.66 11 7 C7.7 7 4.4 7 1 7 C1 6.01 1 5.02 1 4 C0.6937566 2.66018514 0.36548445 1.32488113 0 0 Z " fill="#1B1B6F" transform="translate(236,136)"/>
<path d="M0 0 C0.33 0 0.66 0 1 0 C1 3.63 1 7.26 1 11 C-0.65 11 -2.3 11 -4 11 C-3.67 10.01 -3.34 9.02 -3 8 C-2.34 8.33 -1.68 8.66 -1 9 C-1.020625 7.88625 -1.04125 6.7725 -1.0625 5.625 C-1 2 -1 2 0 0 Z " fill="#2C2E68" transform="translate(216,145)"/>
<path d="M0 0 C1 3 1 3 1.4375 6.4375 C1.91928541 9.48880759 2.43789959 11.39649931 4 14 C1.72982609 12.39196015 -0.16398307 11.04950728 -2 9 C-2.66397817 4.85013645 -2.35048538 3.52572807 0 0 Z " fill="#1D6EA1" transform="translate(186,103)"/>
<path d="M0 0 C1.96259262 0.39611961 3.92007661 0.81761694 5.875 1.25 C7.51082031 1.59804687 7.51082031 1.59804687 9.1796875 1.953125 C12 3 12 3 13.3828125 5.109375 C13.58648437 5.73328125 13.79015625 6.3571875 14 7 C13.34 7 12.68 7 12 7 C12 6.34 12 5.68 12 5 C11.38511719 4.86722656 10.77023438 4.73445313 10.13671875 4.59765625 C9.32847656 4.42105469 8.52023438 4.24445313 7.6875 4.0625 C6.88699219 3.88847656 6.08648437 3.71445313 5.26171875 3.53515625 C3 3 3 3 0 2 C0 1.34 0 0.68 0 0 Z " fill="#D52680" transform="translate(196,88)"/>
<path d="M0 0 C1.98 0.495 1.98 0.495 4 1 C3.34 3.97 2.68 6.94 2 10 C1.01 9.01 0.02 8.02 -1 7 C-0.6875 3.3125 -0.6875 3.3125 0 0 Z " fill="#583882" transform="translate(186,94)"/>
<path d="M0 0 C2 2 2 2 2 5 C2.66 5 3.32 5 4 5 C4 6.32 4 7.64 4 9 C2.68 9 1.36 9 0 9 C0 6.03 0 3.06 0 0 Z " fill="#2E3182" transform="translate(114,145)"/>
<path d="M0 0 C0.33 0.99 0.66 1.98 1 3 C2.98 2.67 4.96 2.34 7 2 C7 3.32 7 4.64 7 6 C5.02 6 3.04 6 1 6 C0.67 4.02 0.34 2.04 0 0 Z " fill="#AC5A7C" transform="translate(229,168)"/>
<path d="M0 0 C1.32 0 2.64 0 4 0 C2.8905928 3.48670834 1.73662334 6.77484237 0 10 C-0.66 9.67 -1.32 9.34 -2 9 C-1.67 7.68 -1.34 6.36 -1 5 C-0.34 5 0.32 5 1 5 C0.67 3.35 0.34 1.7 0 0 Z " fill="#2E2F83" transform="translate(94,128)"/>
<path d="M0 0 C-1.28062485 1.7074998 -2.61767557 3.37373596 -4 5 C-4.66 5 -5.32 5 -6 5 C-6.33 3.68 -6.66 2.36 -7 1 C-3.375 -1.125 -3.375 -1.125 0 0 Z " fill="#342F5C" transform="translate(233,107)"/>
<path d="M0 0 C1.65 0 3.3 0 5 0 C4.67 1.65 4.34 3.3 4 5 C2.68 4.67 1.36 4.34 0 4 C0 2.68 0 1.36 0 0 Z " fill="#272C70" transform="translate(278,126)"/>
<path d="M0 0 C2.1875 0.3125 2.1875 0.3125 4 1 C2.68 1.33 1.36 1.66 0 2 C0 4.31 0 6.62 0 9 C-2 6 -2 6 -3 3 C-1.75 1.4375 -1.75 1.4375 0 0 Z " fill="#232764" transform="translate(117,141)"/>
<path d="M0 0 C0.66 0.99 1.32 1.98 2 3 C1.34 4.32 0.68 5.64 0 7 C-1.32 6.67 -2.64 6.34 -4 6 C-3.67 5.34 -3.34 4.68 -3 4 C-2.34 4 -1.68 4 -1 4 C-0.67 2.68 -0.34 1.36 0 0 Z " fill="#AC4A70" transform="translate(220,166)"/>
<path d="M0 0 C1.32 0.66 2.64 1.32 4 2 C3.34 3.32 2.68 4.64 2 6 C1.01 5.01 0.02 4.02 -1 3 C-0.67 2.01 -0.34 1.02 0 0 Z " fill="#A85376" transform="translate(214,163)"/>
<path d="M0 0 C2.88437779 1.29299694 4.87219421 2.65941363 7 5 C6.67 5.66 6.34 6.32 6 7 C3.00675737 5.9024777 2.15389099 5.32317108 0.75 2.375 C0.5025 1.59125 0.255 0.8075 0 0 Z " fill="#262865" transform="translate(155,138)"/>
<path d="M0 0 C0.33 1.32 0.66 2.64 1 4 C-1.375 4.1875 -1.375 4.1875 -4 4 C-4.66 3.01 -5.32 2.02 -6 1 C-4.02 0.67 -2.04 0.34 0 0 Z " fill="#B24F6A" transform="translate(104,170)"/>
<path d="M0 0 C0.66 0.33 1.32 0.66 2 1 C1.34 3.31 0.68 5.62 0 8 C0.66 8 1.32 8 2 8 C2 8.99 2 9.98 2 11 C1.01 10.67 0.02 10.34 -1 10 C-1.02689216 8.52093108 -1.04634621 7.04172517 -1.0625 5.5625 C-1.07410156 4.73878906 -1.08570313 3.91507813 -1.09765625 3.06640625 C-1 1 -1 1 0 0 Z " fill="#A34D6C" transform="translate(174,163)"/>
<path d="M0 0 C1.98 0 3.96 0 6 0 C6.33 0.99 6.66 1.98 7 3 C6.01 4.485 6.01 4.485 5 6 C4.731875 5.38125 4.46375 4.7625 4.1875 4.125 C3.04443152 1.7004767 3.04443152 1.7004767 0 0 Z " fill="#A35D7F" transform="translate(201,163)"/>
<path d="M0 0 C0.33 0.66 0.66 1.32 1 2 C0.0625 4.625 0.0625 4.625 -1 7 C-1.99 6.67 -2.98 6.34 -4 6 C-4.33 5.01 -4.66 4.02 -5 3 C-4.34 2.67 -3.68 2.34 -3 2 C-2.34 2.33 -1.68 2.66 -1 3 C-0.67 2.01 -0.34 1.02 0 0 Z " fill="#2F338E" transform="translate(89,144)"/>
<path d="M0 0 C1.0625 1.875 1.0625 1.875 2 4 C1.67 4.66 1.34 5.32 1 6 C-1.97 5.505 -1.97 5.505 -5 5 C-3.68 4.67 -2.36 4.34 -1 4 C-1.33 3.01 -1.66 2.02 -2 1 C-1.34 0.67 -0.68 0.34 0 0 Z " fill="#1E205B" transform="translate(128,126)"/>
<path d="" fill="#000000" transform="translate(0,0)"/>
<path d="" fill="#000000" transform="translate(0,0)"/>
<path d="" fill="#000000" transform="translate(0,0)"/>
<path d="" fill="#000000" transform="translate(0,0)"/>
</svg>
