<?xml version="1.0" encoding="UTF-8"?>
<svg version="1.1" xmlns="http://www.w3.org/2000/svg" width="330" height="250">
<path d="M0 0 C-0.33 0.66 -0.66 1.32 -1 2 C-2.09054688 1.55269531 -3.18109375 1.10539062 -4.3046875 0.64453125 C-12.33015995 -2.59295098 -20.34159419 -5.56642748 -28.6875 -7.875 C-29.78070557 -8.17893677 -29.78070557 -8.17893677 -30.89599609 -8.48901367 C-43.63020758 -11.89371804 -56.21864078 -12.72489386 -68.3046875 -6.88671875 C-80.83754854 0.4638693 -86.39340073 14.24077451 -92.05371094 26.91699219 C-93.29502304 29.64941605 -94.63397937 32.32809801 -96 35 C-97.65 35 -99.3 35 -101 35 C-102.67826923 31.08820439 -104.34057804 27.16982376 -106 23.25 C-106.47695312 22.13882813 -106.95390625 21.02765625 -107.4453125 19.8828125 C-107.89648438 18.81289062 -108.34765625 17.74296875 -108.8125 16.640625 C-109.44091797 15.16384277 -109.44091797 15.16384277 -110.08203125 13.65722656 C-111 11 -111 11 -111 7 C-109.35 7 -107.7 7 -106 7 C-102.85180745 12.86215164 -100.73624758 18.5811453 -99 25 C-98.34 25 -97.68 25 -97 25 C-96.87625 23.77023438 -96.87625 23.77023438 -96.75 22.515625 C-94.13611132 10.26302181 -85.42306529 -2.48473186 -75.4921875 -9.86328125 C-51.94833812 -24.94718475 -22.25811503 -11.26567781 0 0 Z " fill="#0C5070" transform="translate(203,105)"/>
<path d="M0 0 C4.21114791 1.50943516 6.02795659 4.53531529 8.61328125 8.06640625 C9.36641602 9.06124023 9.36641602 9.06124023 10.13476562 10.07617188 C11.36876811 11.70975612 12.58640866 13.35567725 13.80078125 15.00390625 C14.13078125 10.38390625 14.46078125 5.76390625 14.80078125 1.00390625 C16.45078125 0.67390625 18.10078125 0.34390625 19.80078125 0.00390625 C20.80078125 1.00390625 20.80078125 1.00390625 20.91430664 3.59594727 C20.90906982 4.72186279 20.90383301 5.84777832 20.8984375 7.0078125 C20.89521484 8.22275391 20.89199219 9.43769531 20.88867188 10.68945312 C20.88029297 11.96884766 20.87191406 13.24824219 20.86328125 14.56640625 C20.85876953 15.84966797 20.85425781 17.13292969 20.84960938 18.45507812 C20.8377767 21.63806647 20.82129193 24.82096387 20.80078125 28.00390625 C16.28746975 28.40538689 16.28746975 28.40538689 14.1315918 26.62695312 C13.41676636 25.68432617 13.41676636 25.68432617 12.6875 24.72265625 C11.89956055 23.70751953 11.89956055 23.70751953 11.09570312 22.671875 C10.56525391 21.95644531 10.03480469 21.24101562 9.48828125 20.50390625 C8.93849609 19.78847656 8.38871094 19.07304687 7.82226562 18.3359375 C6.46778753 16.56922694 5.132408 14.78790381 3.80078125 13.00390625 C3.47078125 17.95390625 3.14078125 22.90390625 2.80078125 28.00390625 C0.82078125 28.00390625 -1.15921875 28.00390625 -3.19921875 28.00390625 C-3.22808213 23.52475297 -3.24597062 19.04562334 -3.26171875 14.56640625 C-3.27009766 13.28701172 -3.27847656 12.00761719 -3.28710938 10.68945312 C-3.29033203 9.47451172 -3.29355469 8.25957031 -3.296875 7.0078125 C-3.30211182 5.88189697 -3.30734863 4.75598145 -3.31274414 3.59594727 C-3.15549546 0.00560479 -3.15549546 0.00560479 0 0 Z " fill="#045279" transform="translate(150.19921875,111.99609375)"/>
<path d="M0 0 C6.6 0 13.2 0 20 0 C20 1.98 20 3.96 20 6 C15.05 6 10.1 6 5 6 C5 7.65 5 9.3 5 11 C9.29 11 13.58 11 18 11 C18.33 12.65 18.66 14.3 19 16 C18 17 18 17 15.05859375 17.09765625 C13.86363281 17.08605469 12.66867188 17.07445312 11.4375 17.0625 C9.64119141 17.04896484 9.64119141 17.04896484 7.80859375 17.03515625 C6.88175781 17.02355469 5.95492187 17.01195312 5 17 C5 18.98 5 20.96 5 23 C10.28 23 15.56 23 21 23 C20.67 24.65 20.34 26.3 20 28 C13.4 28 6.8 28 0 28 C0 18.76 0 9.52 0 0 Z " fill="#0B5173" transform="translate(122,112)"/>
<path d="M0 0 C3.114375 -0.020625 6.22875 -0.04125 9.4375 -0.0625 C10.91174438 -0.07615601 10.91174438 -0.07615601 12.41577148 -0.09008789 C13.18477783 -0.09258545 13.95378418 -0.09508301 14.74609375 -0.09765625 C15.93223267 -0.10551147 15.93223267 -0.10551147 17.14233398 -0.11352539 C19 0 19 0 20 1 C20 2.65 20 4.3 20 6 C15.05 6 10.1 6 5 6 C5 7.65 5 9.3 5 11 C9.29 11 13.58 11 18 11 C18 12.98 18 14.96 18 17 C13.71 17 9.42 17 5 17 C5 18.98 5 20.96 5 23 C9.95 23 14.9 23 20 23 C20 24.65 20 26.3 20 28 C13.4 28 6.8 28 0 28 C0 18.76 0 9.52 0 0 Z " fill="#095274" transform="translate(69,112)"/>
<path d="M0 0 C6.93 0 13.86 0 21 0 C20.67 1.65 20.34 3.3 20 5 C15.38 5 10.76 5 6 5 C6 6.98 6 8.96 6 11 C10.29 11 14.58 11 19 11 C19 12.65 19 14.3 19 16 C14.71 16 10.42 16 6 16 C6 19.63 6 23.26 6 27 C4.02 27 2.04 27 0 27 C0 18.09 0 9.18 0 0 Z " fill="#4F4F4F" transform="translate(213,113)"/>
<path d="M0 0 C0.87454834 0.00523682 1.74909668 0.01047363 2.65014648 0.01586914 C3.59438477 0.0190918 4.53862305 0.02231445 5.51147461 0.02563477 C6.50469727 0.03401367 7.49791992 0.04239258 8.52124023 0.05102539 C9.51833008 0.05553711 10.51541992 0.06004883 11.54272461 0.06469727 C14.01478872 0.07652532 16.48673541 0.0930069 18.95874023 0.11352539 C18.95874023 2.09352539 18.95874023 4.07352539 18.95874023 6.11352539 C16.31874023 6.11352539 13.67874023 6.11352539 10.95874023 6.11352539 C10.95874023 13.37352539 10.95874023 20.63352539 10.95874023 28.11352539 C8.97874023 28.11352539 6.99874023 28.11352539 4.95874023 28.11352539 C4.95874023 20.85352539 4.95874023 13.59352539 4.95874023 6.11352539 C2.31874023 6.11352539 -0.32125977 6.11352539 -3.04125977 6.11352539 C-3.08398077 4.44740634 -3.08189809 2.77969654 -3.04125977 1.11352539 C-2.04125977 0.11352539 -2.04125977 0.11352539 0 0 Z " fill="#0E526E" transform="translate(178.041259765625,111.886474609375)"/>
<path d="M0 0 C3.125 -0.5625 3.125 -0.5625 7 0 C9.46527449 2.74335318 11.2476366 5.76486756 13 9 C15.86483058 5.46942819 15.86483058 5.46942819 18.375 1.6875 C20 0 20 0 23.1875 -0.25 C24.115625 -0.1675 25.04375 -0.085 26 0 C24.66665693 3.79902272 22.96198501 6.44773875 20.4375 9.5625 C16.36742924 15.16095833 15.91833915 20.2104832 16 27 C14.02 27 12.04 27 10 27 C10.03222656 26.29617187 10.06445312 25.59234375 10.09765625 24.8671875 C9.99329373 15.98477763 6.89858435 10.75599915 1.93359375 3.73828125 C0 1 0 1 0 0 Z " fill="#575757" transform="translate(235,113)"/>
<path d="M0 0 C1.98 0 3.96 0 6 0 C6 8.91 6 17.82 6 27 C4.02 27 2.04 27 0 27 C0 18.09 0 9.18 0 0 Z " fill="#4F4F50" transform="translate(201,113)"/>
<path d="M0 0 C5.58879398 1.1177588 6.08027185 1.73460129 9.3125 6.0625 C10.00988281 6.98160156 10.70726562 7.90070313 11.42578125 8.84765625 C11.94527344 9.55792969 12.46476563 10.26820312 13 11 C12.67 11.66 12.34 12.32 12 13 C10.68 13 9.36 13 8 13 C7.67 12.34 7.34 11.68 7 11 C6.01 10.67 5.02 10.34 4 10 C4 15.61 4 21.22 4 27 C2.68 27 1.36 27 0 27 C0 18.09 0 9.18 0 0 Z " fill="#055277" transform="translate(148,112)"/>
<path d="M0 0 C6.13579396 0.55779945 11.2662425 2.46826678 16.9375 4.8125 C17.79279297 5.15603516 18.64808594 5.49957031 19.52929688 5.85351562 C24.82064844 8.00476687 29.92348182 10.3823284 35 13 C34.67 13.66 34.34 14.32 34 15 C32.36417969 14.32904297 32.36417969 14.32904297 30.6953125 13.64453125 C19.96000315 9.31608716 9.20889825 5.87509565 -2 3 C-1.34 2.01 -0.68 1.02 0 0 Z " fill="#19506C" transform="translate(168,92)"/>
<path d="M0 0 C6.6 0 13.2 0 20 0 C19.67 1.65 19.34 3.3 19 5 C16.89590361 5.02701408 14.79170822 5.04640223 12.6875 5.0625 C11.51574219 5.07410156 10.34398437 5.08570312 9.13671875 5.09765625 C6 5 6 5 3 4 C2.67 4.99 2.34 5.98 2 7 C1.34 4.69 0.68 2.38 0 0 Z " fill="#015474" transform="translate(122,112)"/>
<path d="M0 0 C0.33 0 0.66 0 1 0 C1 8.58 1 17.16 1 26 C2.32 26 3.64 26 5 26 C5 20.39 5 14.78 5 9 C6.32 9.33 7.64 9.66 9 10 C9 10.66 9 11.32 9 12 C10.98 11.67 12.96 11.34 15 11 C15.66 12.32 16.32 13.64 17 15 C15.68 15.33 14.36 15.66 13 16 C13.66 16.33 14.32 16.66 15 17 C15.625 19.5625 15.625 19.5625 16 22 C12.69833218 18.79004518 9.8980567 15.62257087 7 12 C6.67 16.95 6.34 21.9 6 27 C4.02 27 2.04 27 0 27 C0 18.09 0 9.18 0 0 Z " fill="#154D66" transform="translate(147,113)"/>
<path d="M0 0 C1.65 0.33 3.3 0.66 5 1 C5 9.91 5 18.82 5 28 C3.35 28 1.7 28 0 28 C-1.8125 25.5 -1.8125 25.5 -3 23 C0 24 0 24 1 26 C1.66 26 2.32 26 3 26 C3 19.73 3 13.46 3 7 C2.34 6.67 1.68 6.34 1 6 C1.04125 7.27875 1.0825 8.5575 1.125 9.875 C1.1953125 12.0546875 1.1953125 12.0546875 1 14 C0.34 14.66 -0.32 15.32 -1 16 C-1.02685095 13.52076199 -1.04676547 11.0418116 -1.0625 8.5625 C-1.07506836 7.50192383 -1.07506836 7.50192383 -1.08789062 6.41992188 C-1.09653588 4.61306441 -1.05220011 2.80612397 -1 1 C-0.67 0.67 -0.34 0.34 0 0 Z " fill="#154E68" transform="translate(166,112)"/>
<path d="M0 0 C0.99 0 1.98 0 3 0 C4.38671875 1.53125 4.38671875 1.53125 5.6875 3.5 C6.12449219 4.1496875 6.56148437 4.799375 7.01171875 5.46875 C7.33785156 5.9740625 7.66398438 6.479375 8 7 C8.33 4.69 8.66 2.38 9 0 C9.66 0 10.32 0 11 0 C11 4.29 11 8.58 11 13 C6.9915966 10.9957983 5.58590343 9.50944037 3 6 C2.67 8.31 2.34 10.62 2 13 C1.34 13 0.68 13 0 13 C0 8.71 0 4.42 0 0 Z " fill="#484848" transform="translate(169,148)"/>
<path d="M0 0 C0.99 0 1.98 0 3 0 C4.38671875 1.53125 4.38671875 1.53125 5.6875 3.5 C6.12449219 4.1496875 6.56148437 4.799375 7.01171875 5.46875 C7.33785156 5.9740625 7.66398438 6.479375 8 7 C8.33 4.69 8.66 2.38 9 0 C9.66 0 10.32 0 11 0 C11 4.29 11 8.58 11 13 C6.9915966 10.9957983 5.58590343 9.50944037 3 6 C2.67 8.31 2.34 10.62 2 13 C1.34 13 0.68 13 0 13 C0 8.71 0 4.42 0 0 Z " fill="#4B4A4A" transform="translate(236,148)"/>
<path d="M0 0 C0.99 0.33 1.98 0.66 3 1 C2.98839844 2.27617188 2.97679687 3.55234375 2.96484375 4.8671875 C2.95546583 6.53645687 2.94636563 8.20572783 2.9375 9.875 C2.92912109 10.71675781 2.92074219 11.55851562 2.91210938 12.42578125 C2.90727539 13.63427734 2.90727539 13.63427734 2.90234375 14.8671875 C2.89710693 15.61081543 2.89187012 16.35444336 2.88647461 17.12060547 C2.88213364 19.09132568 2.88213364 19.09132568 4 21 C3.67 21.66 3.34 22.32 3 23 C2.01 23 1.02 23 0 23 C-0.90579955 15.6889036 -1.41269254 8.36777571 -1 1 C-0.67 0.67 -0.34 0.34 0 0 Z " fill="#5A5A5C" transform="translate(203,115)"/>
<path d="M0 0 C0.99 0 1.98 0 3 0 C3.83790789 1.78953185 4.67019396 3.58169695 5.5 5.375 C5.9640625 6.37273437 6.428125 7.37046875 6.90625 8.3984375 C8 11 8 11 8 13 C7.01 12.67 6.02 12.34 5 12 C5 11.34 5 10.68 5 10 C2.69 10 0.38 10 -2 10 C-2.33 10.99 -2.66 11.98 -3 13 C-3.66 13 -4.32 13 -5 13 C-3.58192622 8.52761347 -1.88695626 4.28853694 0 0 Z M1 4 C0.67 5.32 0.34 6.64 0 8 C0.99 8 1.98 8 3 8 C2.67 6.68 2.34 5.36 2 4 C1.67 4 1.34 4 1 4 Z " fill="#464445" transform="translate(157,148)"/>
<path d="M0 0 C3.3 0 6.6 0 10 0 C10 0.66 10 1.32 10 2 C7.36 2 4.72 2 2 2 C2 2.99 2 3.98 2 5 C4.31 5 6.62 5 9 5 C9 5.66 9 6.32 9 7 C6.69 7 4.38 7 2 7 C2 8.32 2 9.64 2 11 C4.64 11 7.28 11 10 11 C10 11.66 10 12.32 10 13 C6.7 13 3.4 13 0 13 C0 8.71 0 4.42 0 0 Z " fill="#464445" transform="translate(222,148)"/>
<path d="M0 0 C2.97 0 5.94 0 9 0 C9 0.66 9 1.32 9 2 C6.69 2 4.38 2 2 2 C2 2.99 2 3.98 2 5 C4.31 5 6.62 5 9 5 C9 5.66 9 6.32 9 7 C6.69 7 4.38 7 2 7 C2 8.32 2 9.64 2 11 C4.31 11 6.62 11 9 11 C9 11.66 9 12.32 9 13 C6.03 13 3.06 13 0 13 C0 8.71 0 4.42 0 0 Z " fill="#403E3F" transform="translate(103,148)"/>
<path d="M0 0 C3.0625 0.1875 3.0625 0.1875 5.0625 2.1875 C1.92900268 3.23199911 1.07281744 3.12173645 -1.9375 2.1875 C-0.43086217 5.20077566 2.09416411 5.79806618 5.0625 7.1875 C4.1875 12.0625 4.1875 12.0625 3.0625 13.1875 C0.72305264 12.90019945 -1.6114143 12.56813221 -3.9375 12.1875 C-3.9375 11.1975 -3.9375 10.2075 -3.9375 9.1875 C-0.9675 9.6825 -0.9675 9.6825 2.0625 10.1875 C0.11033565 8.23533565 -1.46949953 7.33923355 -3.9375 6.1875 C-3.980221 4.52138095 -3.97813832 2.85367115 -3.9375 1.1875 C-2.9375 0.1875 -2.9375 0.1875 0 0 Z " fill="#4D4B4C" transform="translate(135.9375,147.8125)"/>
<path d="M0 0 C2.97 0 5.94 0 9 0 C9 0.66 9 1.32 9 2 C6.69 2 4.38 2 2 2 C2 2.99 2 3.98 2 5 C4.31 5 6.62 5 9 5 C9 5.66 9 6.32 9 7 C6.69 7 4.38 7 2 7 C2 8.32 2 9.64 2 11 C4.31 11 6.62 11 9 11 C9 11.66 9 12.32 9 13 C6.03 13 3.06 13 0 13 C0 8.71 0 4.42 0 0 Z " fill="#444444" transform="translate(193,148)"/>
<path d="M0 0 C0 6.6 0 13.2 0 20 C-1.32 19.67 -2.64 19.34 -4 19 C-3.505 10.09 -3.505 10.09 -3 1 C-1 0 -1 0 0 0 Z " fill="#045276" transform="translate(188,119)"/>
<path d="M0 0 C3.3 0 6.6 0 10 0 C10 0.66 10 1.32 10 2 C7.36 2 4.72 2 2 2 C3.66954819 5.22404978 3.66954819 5.22404978 6.625 5.6875 C7.40875 5.790625 8.1925 5.89375 9 6 C9 6.66 9 7.32 9 8 C6.69 8 4.38 8 2 8 C2 9.65 2 11.3 2 13 C1.34 13 0.68 13 0 13 C0 8.71 0 4.42 0 0 Z " fill="#404040" transform="translate(89,148)"/>
<path d="M0 0 C0.99 0.33 1.98 0.66 3 1 C4.1875 4.5625 4.1875 4.5625 5 8 C5.66 8 6.32 8 7 8 C7.4021875 6.2984375 7.4021875 6.2984375 7.8125 4.5625 C8.4003125 2.7990625 8.4003125 2.7990625 9 1 C9.99 0.67 10.98 0.34 12 0 C11.54554036 1.41791408 11.08625056 2.83428046 10.625 4.25 C10.36976563 5.03890625 10.11453125 5.8278125 9.8515625 6.640625 C9.04826333 8.86627958 8.10288338 10.90931672 7 13 C4 12 4 12 2.83203125 9.78515625 C2.32736328 8.43744141 2.32736328 8.43744141 1.8125 7.0625 C1.46832031 6.16660156 1.12414062 5.27070313 0.76953125 4.34765625 C0 2 0 2 0 0 Z " fill="#494949" transform="translate(206,148)"/>
<path d="M0 0 C1.81242052 -0.02687279 3.62495233 -0.04633715 5.4375 -0.0625 C6.44683594 -0.07410156 7.45617187 -0.08570312 8.49609375 -0.09765625 C11 0 11 0 12 1 C12 2.65 12 4.3 12 6 C7.05 6 2.1 6 -3 6 C-3 5.67 -3 5.34 -3 5 C-0.36 4.67 2.28 4.34 5 4 C4.360625 3.71125 3.72125 3.4225 3.0625 3.125 C1 2 1 2 0 0 Z " fill="#0A536B" transform="translate(77,112)"/>
<path d="M0 0 C0.5625 1.9375 0.5625 1.9375 1 4 C-0.89885096 5.89885096 -3.57247903 5.12367506 -6.08984375 5.1328125 C-8 5 -8 5 -10 4 C-12.32914823 3.63858045 -14.66253478 3.30300475 -17 3 C-13.36280395 0.57520264 -11.14296518 0.61337423 -6.8125 0.375 C-5.54019531 0.30023438 -4.26789063 0.22546875 -2.95703125 0.1484375 C-1.49330078 0.07496094 -1.49330078 0.07496094 0 0 Z " fill="#555354" transform="translate(233,113)"/>
<path d="M0 0 C4.71370756 0.64985095 8.57686444 2.51561392 12.8125 4.5625 C13.50537109 4.89185547 14.19824219 5.22121094 14.91210938 5.56054688 C16.61044948 6.36872251 18.30555769 7.18368377 20 8 C19.67 8.66 19.34 9.32 19 10 C16.01377234 8.91430153 13.03755082 7.80342472 10.0625 6.6875 C9.21236328 6.37876953 8.36222656 6.07003906 7.48632812 5.75195312 C6.67744141 5.44580078 5.86855469 5.13964844 5.03515625 4.82421875 C4.2862915 4.54666748 3.53742676 4.26911621 2.76586914 3.9831543 C1 3 1 3 0 0 Z " fill="#285466" transform="translate(183,97)"/>
<path d="M0 0 C3.3 0 6.6 0 10 0 C10 0.66 10 1.32 10 2 C8.68 2 7.36 2 6 2 C6 5.63 6 9.26 6 13 C5.34 13 4.68 13 4 13 C4 9.37 4 5.74 4 2 C2.68 2 1.36 2 0 2 C0 1.34 0 0.68 0 0 Z " fill="#414141" transform="translate(251,148)"/>
<path d="M0 0 C0.66 0 1.32 0 2 0 C2 3.63 2 7.26 2 11 C4.31 11 6.62 11 9 11 C9 11.66 9 12.32 9 13 C6.03 13 3.06 13 0 13 C0 8.71 0 4.42 0 0 Z " fill="#333434" transform="translate(69,148)"/>
<path d="M0 0 C2.375 -0.1875 2.375 -0.1875 5 0 C7 3 7 3 7 6 C6.34 6 5.68 6 5 6 C5 5.34 5 4.68 5 4 C4.34 4 3.68 4 3 4 C3.33 6.31 3.66 8.62 4 11 C1.73030256 8.73030256 1.00868171 7.02604513 0 4 C0 2.68 0 1.36 0 0 Z " fill="#0C506C" transform="translate(92,112)"/>
<path d="M0 0 C0.33 0 0.66 0 1 0 C1.38909985 1.45463481 1.76088029 2.91391207 2.125 4.375 C2.43824219 5.59316406 2.43824219 5.59316406 2.7578125 6.8359375 C2.83773437 7.55007812 2.91765625 8.26421875 3 9 C2.34 9.66 1.68 10.32 1 11 C0.34 9.68 -0.32 8.36 -1 7 C-1.99 8.98 -2.98 10.96 -4 13 C-4.66 12.67 -5.32 12.34 -6 12 C-4.02 8.04 -2.04 4.08 0 0 Z " fill="#104E6B" transform="translate(114,110)"/>
<path d="M0 0 C0.99 0.33 1.98 0.66 3 1 C2.125 5.875 2.125 5.875 1 7 C-1.33944736 6.71269945 -3.6739143 6.38063221 -6 6 C-6 5.01 -6 4.02 -6 3 C-3.03 3.495 -3.03 3.495 0 4 C-0.33 3.01 -0.66 2.02 -1 1 C-0.67 0.67 -0.34 0.34 0 0 Z " fill="#484546" transform="translate(138,154)"/>
<path d="M0 0 C1.98 0 3.96 0 6 0 C5.34 1.65 4.68 3.3 4 5 C1 5 1 5 -2 4 C-1.34 2.68 -0.68 1.36 0 0 Z " fill="#4D4D4D" transform="translate(255,113)"/>
<path d="M0 0 C1.5625 1.75 1.5625 1.75 3 4 C2.6875 6.25 2.6875 6.25 2 8 C0.35 8 -1.3 8 -3 8 C-2.01 5.36 -1.02 2.72 0 0 Z " fill="#07537E" transform="translate(105,130)"/>
<path d="M0 0 C0 0.99 0 1.98 0 3 C-2.97 3 -5.94 3 -9 3 C-9.33 2.34 -9.66 1.68 -10 1 C-6.78548731 -0.60725635 -3.56387464 -0.05748185 0 0 Z " fill="#616161" transform="translate(231,125)"/>
<path d="M0 0 C1.258125 -0.04125 2.51625 -0.0825 3.8125 -0.125 C4.52019531 -0.14820312 5.22789062 -0.17140625 5.95703125 -0.1953125 C8 0 8 0 11 2 C6.92630576 4.03684712 4.41062136 4.0257259 0 3 C0 2.01 0 1.02 0 0 Z " fill="#075577" transform="translate(140,90)"/>
<path d="M0 0 C0.66 0 1.32 0 2 0 C2 1.32 2 2.64 2 4 C4.31 4 6.62 4 9 4 C9 4.66 9 5.32 9 6 C6.03 6 3.06 6 0 6 C0 4.02 0 2.04 0 0 Z " fill="#3A3939" transform="translate(103,155)"/>
<path d="M0 0 C0.66 0 1.32 0 2 0 C2 4.29 2 8.58 2 13 C1.34 13 0.68 13 0 13 C0 8.71 0 4.42 0 0 Z " fill="#444444" transform="translate(125,148)"/>
<path d="M0 0 C0.66 0 1.32 0 2 0 C2 4.29 2 8.58 2 13 C1.34 13 0.68 13 0 13 C0 8.71 0 4.42 0 0 Z " fill="#424444" transform="translate(82,148)"/>
<path d="M0 0 C0.33 0.99 0.66 1.98 1 3 C3.64 3 6.28 3 9 3 C9 3.66 9 4.32 9 5 C5.7 5 2.4 5 -1 5 C-0.67 3.35 -0.34 1.7 0 0 Z " fill="#3F3E3E" transform="translate(223,156)"/>
<path d="M0 0 C0.33 0 0.66 0 1 0 C1.12375 1.134375 1.2475 2.26875 1.375 3.4375 C1.58125 4.613125 1.7875 5.78875 2 7 C2.66 7.33 3.32 7.66 4 8 C4 8.99 4 9.98 4 11 C2.68 11 1.36 11 0 11 C0 7.37 0 3.74 0 0 Z " fill="#055173" transform="translate(69,112)"/>
<path d="M0 0 C0.66 0 1.32 0 2 0 C2 0.66 2 1.32 2 2 C2.66 2 3.32 2 4 2 C3.67 3.98 3.34 5.96 3 8 C2.34 8 1.68 8 1 8 C0.67 5.36 0.34 2.72 0 0 Z " fill="#02547B" transform="translate(95,116)"/>
<path d="M0 0 C0.66 0 1.32 0 2 0 C2 0.66 2 1.32 2 2 C2.66 2.33 3.32 2.66 4 3 C3.360625 3.103125 2.72125 3.20625 2.0625 3.3125 C1.381875 3.539375 0.70125 3.76625 0 4 C-0.33 4.99 -0.66 5.98 -1 7 C-1.66 7 -2.32 7 -3 7 C-1.125 1.125 -1.125 1.125 0 0 Z " fill="#413E3F" transform="translate(155,154)"/>
<path d="M0 0 C2.31 0 4.62 0 7 0 C6 2 5 4 4 6 C0 1.125 0 1.125 0 0 Z " fill="#4C4A4B" transform="translate(235,113)"/>
<path d="M0 0 C0.33 0.99 0.66 1.98 1 3 C1.99 3 2.98 3 4 3 C4.33 2.34 4.66 1.68 5 1 C5 2.32 5 3.64 5 5 C3.02 5 1.04 5 -1 5 C-0.67 3.35 -0.34 1.7 0 0 Z " fill="#474747" transform="translate(202,135)"/>
<path d="M0 0 C0.99 0 1.98 0 3 0 C2.67 1.98 2.34 3.96 2 6 C2.66 6.33 3.32 6.66 4 7 C3.01 7 2.02 7 1 7 C1 6.01 1 5.02 1 4 C0.34 4 -0.32 4 -1 4 C-0.67 2.68 -0.34 1.36 0 0 Z " fill="#05557C" transform="translate(99,125)"/>
<path d="M0 0 C2.31 0 4.62 0 7 0 C6.67 1.32 6.34 2.64 6 4 C4.02 3.34 2.04 2.68 0 2 C0 1.34 0 0.68 0 0 Z " fill="#104A67" transform="translate(136,135)"/>
<path d="M0 0 C1.65 1.65 3.3 3.3 5 5 C4.67 5.66 4.34 6.32 4 7 C2.68 7 1.36 7 0 7 C0 4.69 0 2.38 0 0 Z " fill="#0E506E" transform="translate(156,118)"/>
<path d="M0 0 C-1.0625 1.5625 -1.0625 1.5625 -3 3 C-6.6875 2.6875 -6.6875 2.6875 -10 2 C-6.3558226 -0.4294516 -4.28758728 -0.16179575 0 0 Z " fill="#5D5D5D" transform="translate(226,114)"/>
</svg>
